<svg xmlns="http://www.w3.org/2000/svg" width="400" height="300" viewBox="0 0 400 300" fill="none">
  <rect width="400" height="300" fill="#F5F5F5"/>
  <path d="M200 150C211.046 150 220 141.046 220 130C220 118.954 211.046 110 200 110C188.954 110 180 118.954 180 130C180 141.046 188.954 150 200 150Z" fill="#D1D5DB"/>
  <path d="M240 180H160C160 180 160 165 180 160C200 155 200 160 220 160C240 160 240 180 240 180Z" fill="#D1D5DB"/>
  <path d="M110 220L150 170L170 190L210 140L290 220H110Z" fill="#D1D5DB"/>
</svg> 